# xmcd CD database file
#
# Track frame offsets:
#	150
#	11652
#	26347
#	35772
#	47280
#	61497
#	71695
#	81850
#	96045
#	106337
#
# Disc length: 1616 seconds
#
# Revision: 1
# Processed by: cddbd v1.5.2PL0 Copyright (c) Steve Scherf et al.
# Submitted via: jetAudio 7
#
DISCID=78064e0a
DTITLE=The Statler Brothers - When We Sing For Him
DYEAR=2000
DGENRE=Gospel
TTITLE0=Daddy Sang Bass
TTITLE1=King Of Love
TTITLE2=Are You Washed In The Blood
TTITLE3=Pass Me Not
TTITLE4=Led Out Of Bondage
TTITLE5=Less Of Me
TTITLE6=Things God Gave Me
TTITLE7=Just In Time
TTITLE8=The Fourth Man
TTITLE9=How Great Thou Art
EXTD=
EXTT0=
EXTT1=
EXTT2=
EXTT3=
EXTT4=
EXTT5=
EXTT6=
EXTT7=
EXTT8=
EXTT9=
PLAYORDER=
